<svg version="1.1" xmlns="http://www.w3.org/2000/svg" xmlns:xlink="http://www.w3.org/1999/xlink" width="15.25237" height="16.12824" viewBox="0,0,15.25237,16.12824"><g transform="translate(-232.37381,-171.93588)"><g data-paper-data="{&quot;isPaintingLayer&quot;:true}" fill="#ffffff" fill-rule="nonzero" stroke="none" stroke-width="0" stroke-linecap="round" stroke-linejoin="miter" stroke-miterlimit="10" stroke-dasharray="" stroke-dashoffset="0" style="mix-blend-mode: normal"><path d="M242.35535,172.05615l1.57684,-0.01843l2.18793,1.98864v4.80435l1.50606,1.49413l-1.71646,1.33609v4.67925l-1.61127,1.72394h-1.94311v-1.47766h0.97156l0.72867,-0.86197v-4.06356l1.70022,-1.44276l-1.45734,-1.14315v-4.18669l-1.33589,-1.10825h-0.85011v-1.6008z" data-paper-data="{&quot;index&quot;:null}"/><path d="M237.88754,172.07745v1.6008h-0.85011l-1.33589,1.10824v4.1867l-1.45734,1.14315l1.70022,1.44276v4.06356l0.72867,0.86197h0.97155v1.47766h-1.94311l-1.61127,-1.72394v-4.67925l-1.71646,-1.33609l1.50607,-1.49413v-4.80435l2.18793,-1.98864l1.57685,0.01843z" data-paper-data="{&quot;index&quot;:null}"/></g></g></svg>