<svg version="1.1" xmlns="http://www.w3.org/2000/svg" xmlns:xlink="http://www.w3.org/1999/xlink" width="24.91542" height="24.81441" viewBox="0,0,24.91542,24.81441"><g transform="translate(-227.66729,-167.4678)"><g data-paper-data="{&quot;isPaintingLayer&quot;:true}" fill="#ffffff" fill-rule="nonzero" stroke-linejoin="miter" stroke-miterlimit="10" stroke-dasharray="" stroke-dashoffset="0" style="mix-blend-mode: normal"><path d="M235.07945,181.55254c0,0 12.27431,-16.47091 16.43407,-13.46919c4.57981,3.30482 -11.53705,17.94257 -11.53705,17.94257c0,0 -0.00145,-2.63106 -1.27279,-3.79242c-1.27134,-1.16136 -3.62423,-0.68096 -3.62423,-0.68096z" stroke="#ffffff" stroke-width="0.5" stroke-linecap="round"/><path d="M237.73627,187.5981c0,2.43251 -2.04916,4.6841 -4.40444,4.6841c-0.7568,0 -1.69083,-0.23326 -2.24682,-0.37356c-1.6741,-0.42242 -1.40467,-0.54063 -2.17656,-1.12976c-0.77189,-0.58911 -1.24116,-1.47868 -1.24116,-1.47868c0,0 1.11586,0.56701 1.7865,0.33572c0.67064,-0.23129 0.89006,-0.54797 1.20437,-1.36721c0.64865,-1.69073 -0.11967,-4.79541 2.67366,-4.79541c2.35529,0 4.40444,1.69229 4.40444,4.1248z" stroke="none" stroke-width="0" stroke-linecap="butt"/></g></g></svg>